<svg xmlns="http://www.w3.org/2000/svg"  viewBox="0 0 64 64" width="64px" height="64px"><path d="M 47.029297 0 L 44.21875 1.0488281 L 52.720703 23.472656 L 56.46875 22.072266 L 47.029297 0 z M 33.808594 8.1816406 L 31.644531 10.259766 L 48.263672 27.572266 L 51.150391 24.802734 L 33.808594 8.1816406 z M 25.318359 18.941406 L 23.890625 21.580078 L 45 33 L 46.902344 29.482422 L 25.318359 18.941406 z M 21.402344 31.376953 L 20.689453 34.289062 L 44 40 L 44.951172 36.115234 L 21.402344 31.376953 z M 13 38 L 13 62 L 51 62 L 51 38 L 47 38 L 47 58 L 17 58 L 17 38 L 13 38 z M 20.070312 42.359375 L 19.910156 45.355469 L 43.876953 46.638672 L 44.089844 42.644531 L 20.070312 42.359375 z M 44 50 L 20 51 L 20 54 L 44 54 L 44 50 z"/></svg>